<svg width="28" height="28" viewBox="0 0 28 28" fill="none" xmlns="http://www.w3.org/2000/svg">
<path d="M26.6023 14.2902C26.6023 13.4337 26.5315 12.5726 26.3803 11.7299H14.255V16.582H21.1986C20.9105 18.1468 19.9847 19.5312 18.629 20.4108V23.5591H22.7715C25.2042 21.3646 26.6023 18.1237 26.6023 14.2902Z" fill="#4285F4"/>
<path d="M14.255 26.6008C17.7221 26.6008 20.6459 25.485 22.7762 23.559L18.6337 20.4108C17.4812 21.1793 15.9933 21.6145 14.2597 21.6145C10.906 21.6145 8.06248 19.3968 7.0422 16.4152H2.76741V19.6607C4.94968 23.9155 9.39451 26.6008 14.255 26.6008Z" fill="#34A853"/>
<path d="M7.03753 16.4153C6.49905 14.8504 6.49905 13.1559 7.03753 11.5911V8.34557H2.76746C0.944181 11.9059 0.944181 16.1005 2.76746 19.6608L7.03753 16.4153Z" fill="#FBBC04"/>
<path d="M14.255 6.38714C16.0877 6.35936 17.8591 7.03531 19.1864 8.2761L22.8565 4.67874C20.5326 2.53977 17.4481 1.3638 14.255 1.40084C9.39451 1.40084 4.94968 4.08613 2.76741 8.34554L7.03747 11.591C8.05303 8.60481 10.9013 6.38714 14.255 6.38714Z" fill="#EA4335"/>
</svg>
